<?xml version="1.0" encoding="UTF-8"?>
<svg xmlns="http://www.w3.org/2000/svg" xmlns:xlink="http://www.w3.org/1999/xlink" width="30px" height="30px" viewBox="0 0 30 30" version="1.1">
<g id="surface1">
<path style=" stroke:none;fill-rule:nonzero;fill:rgb(100%,100%,100%);fill-opacity:1;" d="M 20.226562 22.609375 C 22.292969 22.609375 24.210938 21.980469 25.804688 20.90625 C 23.785156 24.320312 20.0625 26.609375 15.804688 26.609375 C 9.390625 26.609375 4.195312 21.414062 4.195312 15 C 4.195312 8.585938 9.394531 3.390625 15.804688 3.390625 C 16.027344 3.390625 16.246094 3.398438 16.464844 3.410156 C 12.824219 4.894531 10.257812 8.46875 10.257812 12.644531 C 10.257812 18.148438 14.71875 22.609375 20.226562 22.609375 Z M 20.226562 22.609375 "/>
<path style="fill:none;stroke-width:50;stroke-linecap:round;stroke-linejoin:round;stroke:rgb(13.72549%,12.156863%,12.54902%);stroke-opacity:1;stroke-miterlimit:10;" d="M 1294.5 1447 C 942 1447 656.5 1161.5 656.5 809.25 C 656.5 542 820.75 313.25 1053.75 218.25 C 1039.75 217.5 1025.75 217 1011.5 217 C 601.25 217 268.5 549.75 268.5 960 C 268.5 1370.25 601.25 1703 1011.5 1703 C 1284 1703 1522.25 1556.5 1651.5 1338 C 1549.5 1406.75 1426.75 1447 1294.5 1447 Z M 1294.5 1447 " transform="matrix(0.015625,0,0,0.015625,0,0)"/>
</g>
</svg>
