<?xml version="1.0" encoding="UTF-8"?>
<svg xmlns="http://www.w3.org/2000/svg" xmlns:xlink="http://www.w3.org/1999/xlink" width="30px" height="30px" viewBox="0 0 30 30" version="1.1">
<g id="surface1">
<path style=" stroke:none;fill-rule:nonzero;fill:rgb(0%,0%,0%);fill-opacity:1;" d="M 3.75 14.0625 L 0.9375 14.0625 C 0.421875 14.0625 0 14.484375 0 15 C 0 15.515625 0.421875 15.9375 0.9375 15.9375 L 3.75 15.9375 C 4.265625 15.9375 4.6875 15.515625 4.6875 15 C 4.6875 14.484375 4.265625 14.0625 3.75 14.0625 Z M 15 4.6875 C 15.515625 4.6875 15.9375 4.265625 15.9375 3.75 L 15.9375 0.9375 C 15.9375 0.421875 15.515625 0 15 0 C 14.484375 0 14.0625 0.421875 14.0625 0.9375 L 14.0625 3.75 C 14.0625 4.265625 14.484375 4.6875 15 4.6875 Z M 24.019531 7.292969 L 25.988281 5.324219 C 26.351562 4.960938 26.351562 4.375 25.988281 4.011719 C 25.625 3.648438 25.039062 3.648438 24.675781 4.011719 L 22.707031 5.980469 C 22.34375 6.34375 22.34375 6.929688 22.707031 7.292969 C 23.070312 7.65625 23.65625 7.65625 24.019531 7.292969 Z M 6.945312 21.742188 L 4.976562 23.710938 C 4.613281 24.074219 4.613281 24.660156 4.976562 25.023438 C 5.339844 25.386719 5.929688 25.386719 6.289062 25.023438 L 8.261719 23.054688 C 8.625 22.691406 8.625 22.101562 8.261719 21.742188 C 7.898438 21.378906 7.308594 21.378906 6.945312 21.742188 Z M 6.382812 7.707031 C 6.75 8.074219 7.34375 8.074219 7.707031 7.707031 C 8.074219 7.339844 8.074219 6.75 7.707031 6.382812 L 5.71875 4.394531 C 5.351562 4.027344 4.757812 4.027344 4.394531 4.394531 C 4.027344 4.757812 4.027344 5.351562 4.394531 5.71875 Z M 15 25.3125 C 14.484375 25.3125 14.0625 25.734375 14.0625 26.25 L 14.0625 29.0625 C 14.0625 29.578125 14.484375 30 15 30 C 15.515625 30 15.9375 29.578125 15.9375 29.0625 L 15.9375 26.25 C 15.9375 25.734375 15.515625 25.3125 15 25.3125 Z M 23.617188 22.292969 C 23.25 21.925781 22.65625 21.925781 22.292969 22.292969 C 21.925781 22.660156 21.925781 23.25 22.292969 23.617188 L 24.28125 25.605469 C 24.648438 25.972656 25.242188 25.972656 25.605469 25.605469 C 25.972656 25.238281 25.972656 24.644531 25.605469 24.28125 Z M 29.0625 14.0625 L 26.25 14.0625 C 25.734375 14.0625 25.3125 14.484375 25.3125 15 C 25.3125 15.515625 25.734375 15.9375 26.25 15.9375 L 29.0625 15.9375 C 29.578125 15.9375 30 15.515625 30 15 C 30 14.484375 29.578125 14.0625 29.0625 14.0625 Z M 15 6.558594 C 10.335938 6.558594 6.558594 10.335938 6.558594 15 C 6.558594 19.664062 10.335938 23.441406 15 23.441406 C 19.664062 23.441406 23.441406 19.664062 23.441406 15 C 23.441406 10.335938 19.664062 6.558594 15 6.558594 Z M 15 21.5625 C 11.375 21.5625 8.4375 18.625 8.4375 15 C 8.4375 11.375 11.375 8.4375 15 8.4375 C 18.625 8.4375 21.5625 11.375 21.5625 15 C 21.5625 18.625 18.625 21.5625 15 21.5625 Z M 15 21.5625 "/>
</g>
</svg>
